<?xml version="1.0" encoding="UTF-8" standalone="no"?>
<!DOCTYPE svg PUBLIC "-//W3C//DTD SVG 1.1//EN"
 "http://www.w3.org/Graphics/SVG/1.1/DTD/svg11.dtd">
<!-- Generated by graphviz version 2.40.1 (20161225.0304)
 -->
<!-- Title: G Pages: 1 -->
<svg width="547pt" height="118pt"
 viewBox="0.00 0.00 547.09 118.00" xmlns="http://www.w3.org/2000/svg" xmlns:xlink="http://www.w3.org/1999/xlink">
<g id="graph0" class="graph" transform="scale(1 1) rotate(0) translate(4 114)">
<title>G</title>
<!-- init -->
<g id="node1" class="node">
<title>init</title>
<ellipse fill="none" stroke="#000000" cx="27" cy="-23" rx="27" ry="18"/>
<text text-anchor="middle" x="27" y="-18.8" font-family="sans-serif" font-size="14.00" fill="#000000">init</text>
</g>
<!-- build -->
<g id="node2" class="node">
<title>build</title>
<ellipse fill="none" stroke="#000000" cx="120.8893" cy="-46" rx="30.7789" ry="18"/>
<text text-anchor="middle" x="120.8893" y="-41.8" font-family="sans-serif" font-size="14.00" fill="#000000">build</text>
</g>
<!-- init&#45;&gt;build -->
<g id="edge1" class="edge">
<title>init&#45;&gt;build</title>
<path fill="none" stroke="#000000" d="M52.6557,-29.2849C61.8586,-31.5393 72.4464,-34.133 82.4935,-36.5942"/>
<polygon fill="#000000" stroke="#000000" points="81.7435,-40.0139 92.2891,-38.9938 83.4091,-33.2149 81.7435,-40.0139"/>
</g>
<!-- update -->
<g id="node6" class="node">
<title>update</title>
<ellipse fill="none" stroke="#000000" cx="502.3129" cy="-19" rx="36.5594" ry="18"/>
<text text-anchor="middle" x="502.3129" y="-14.8" font-family="sans-serif" font-size="14.00" fill="#000000">update</text>
</g>
<!-- init&#45;&gt;update -->
<g id="edge7" class="edge">
<title>init&#45;&gt;update</title>
<path fill="none" stroke="#000000" d="M53.0015,-17.7809C89.1328,-10.995 156.6445,0 214.7785,0 214.7785,0 214.7785,0 304.7785,0 357.2313,0 417.1603,-6.72 457.1213,-12.1671"/>
<polygon fill="#000000" stroke="#000000" points="456.6976,-15.6418 467.0849,-13.5554 457.6636,-8.7088 456.6976,-15.6418"/>
</g>
<!-- test -->
<g id="node3" class="node">
<title>test</title>
<ellipse fill="none" stroke="#000000" cx="214.7785" cy="-46" rx="27" ry="18"/>
<text text-anchor="middle" x="214.7785" y="-41.8" font-family="sans-serif" font-size="14.00" fill="#000000">test</text>
</g>
<!-- build&#45;&gt;test -->
<g id="edge6" class="edge">
<title>build&#45;&gt;test</title>
<path fill="none" stroke="#000000" d="M151.8923,-46C160.0947,-46 169.0338,-46 177.5299,-46"/>
<polygon fill="#000000" stroke="#000000" points="177.5943,-49.5001 187.5943,-46 177.5942,-42.5001 177.5943,-49.5001"/>
</g>
<!-- diff -->
<g id="node4" class="node">
<title>diff</title>
<ellipse fill="none" stroke="#000000" cx="304.7785" cy="-46" rx="27" ry="18"/>
<text text-anchor="middle" x="304.7785" y="-41.8" font-family="sans-serif" font-size="14.00" fill="#000000">diff</text>
</g>
<!-- test&#45;&gt;diff -->
<g id="edge2" class="edge">
<title>test&#45;&gt;diff</title>
<path fill="none" stroke="#000000" d="M241.7815,-46C249.8062,-46 258.7451,-46 267.3094,-46"/>
<polygon fill="#000000" stroke="#000000" points="267.4836,-49.5001 277.4835,-46 267.4835,-42.5001 267.4836,-49.5001"/>
</g>
<!-- create -->
<g id="node7" class="node">
<title>create</title>
<ellipse fill="none" stroke="#000000" cx="502.3129" cy="-92" rx="34.1639" ry="18"/>
<text text-anchor="middle" x="502.3129" y="-87.8" font-family="sans-serif" font-size="14.00" fill="#000000">create</text>
</g>
<!-- test&#45;&gt;create -->
<g id="edge5" class="edge">
<title>test&#45;&gt;create</title>
<path fill="none" stroke="#000000" d="M236.0487,-57.1442C247.9883,-62.8753 263.3469,-69.3971 277.7785,-73 338.8732,-88.2527 411.9069,-91.8363 457.7132,-92.3949"/>
<polygon fill="#000000" stroke="#000000" points="457.8762,-95.8962 467.9033,-92.4745 457.931,-88.8964 457.8762,-95.8962"/>
</g>
<!-- stage -->
<g id="node5" class="node">
<title>stage</title>
<ellipse fill="none" stroke="#000000" cx="398.6562" cy="-46" rx="30.7558" ry="18"/>
<text text-anchor="middle" x="398.6562" y="-41.8" font-family="sans-serif" font-size="14.00" fill="#000000">stage</text>
</g>
<!-- diff&#45;&gt;stage -->
<g id="edge3" class="edge">
<title>diff&#45;&gt;stage</title>
<path fill="none" stroke="#000000" d="M331.9318,-46C339.9496,-46 348.9102,-46 357.5978,-46"/>
<polygon fill="#000000" stroke="#000000" points="357.598,-49.5001 367.5979,-46 357.5979,-42.5001 357.598,-49.5001"/>
</g>
<!-- stage&#45;&gt;update -->
<g id="edge4" class="edge">
<title>stage&#45;&gt;update</title>
<path fill="none" stroke="#000000" stroke-dasharray="5,2" d="M426.9808,-38.6221C437.0775,-35.9922 448.6839,-32.969 459.7141,-30.0959"/>
<polygon fill="#000000" stroke="#000000" points="460.8271,-33.4229 469.622,-27.5152 459.0626,-26.6489 460.8271,-33.4229"/>
</g>
</g>
</svg>