<?xml version="1.0" encoding="UTF-8" standalone="no"?>
<!DOCTYPE svg PUBLIC "-//W3C//DTD SVG 1.1//EN"
 "http://www.w3.org/Graphics/SVG/1.1/DTD/svg11.dtd">
<!-- Generated by graphviz version 2.40.1 (20161225.0304)
 -->
<!-- Title: G Pages: 1 -->
<svg width="182pt" height="332pt"
 viewBox="0.00 0.00 181.86 332.00" xmlns="http://www.w3.org/2000/svg" xmlns:xlink="http://www.w3.org/1999/xlink">
<g id="graph0" class="graph" transform="scale(1 1) rotate(0) translate(4 328)">
<title>G</title>
<polygon fill="#ffffff" stroke="transparent" points="-4,4 -4,-328 177.8609,-328 177.8609,4 -4,4"/>
<!-- init -->
<g id="node1" class="node">
<title>init</title>
<ellipse fill="none" stroke="#000000" cx="122.0818" cy="-306" rx="27" ry="18"/>
<text text-anchor="middle" x="122.0818" y="-301.8" font-family="sans-serif" font-size="14.00" fill="#000000">init</text>
</g>
<!-- build -->
<g id="node2" class="node">
<title>build</title>
<ellipse fill="none" stroke="#000000" cx="93.0818" cy="-234" rx="30.7789" ry="18"/>
<text text-anchor="middle" x="93.0818" y="-229.8" font-family="sans-serif" font-size="14.00" fill="#000000">build</text>
</g>
<!-- init&#45;&gt;build -->
<g id="edge1" class="edge">
<title>init&#45;&gt;build</title>
<path fill="none" stroke="#000000" d="M115.0617,-288.5708C111.7626,-280.3798 107.752,-270.4225 104.0644,-261.2671"/>
<polygon fill="#000000" stroke="#000000" points="107.2215,-259.7371 100.2388,-251.7689 100.7284,-262.3524 107.2215,-259.7371"/>
</g>
<!-- update -->
<g id="node5" class="node">
<title>update</title>
<ellipse fill="none" stroke="#000000" cx="137.0818" cy="-18" rx="36.5594" ry="18"/>
<text text-anchor="middle" x="137.0818" y="-13.8" font-family="sans-serif" font-size="14.00" fill="#000000">update</text>
</g>
<!-- init&#45;&gt;update -->
<g id="edge6" class="edge">
<title>init&#45;&gt;update</title>
<path fill="none" stroke="#000000" d="M126.5825,-288.1303C128.9993,-277.6737 131.7493,-264.1737 133.0818,-252 141.1515,-178.2762 139.7471,-90.7218 138.2765,-46.5399"/>
<polygon fill="#000000" stroke="#000000" points="141.7646,-46.144 137.9069,-36.2764 134.7691,-46.396 141.7646,-46.144"/>
</g>
<!-- test -->
<g id="node3" class="node">
<title>test</title>
<ellipse fill="none" stroke="#000000" cx="93.0818" cy="-162" rx="27" ry="18"/>
<text text-anchor="middle" x="93.0818" y="-157.8" font-family="sans-serif" font-size="14.00" fill="#000000">test</text>
</g>
<!-- build&#45;&gt;test -->
<g id="edge5" class="edge">
<title>build&#45;&gt;test</title>
<path fill="none" stroke="#000000" d="M93.0818,-215.8314C93.0818,-208.131 93.0818,-198.9743 93.0818,-190.4166"/>
<polygon fill="#000000" stroke="#000000" points="96.5819,-190.4132 93.0818,-180.4133 89.5819,-190.4133 96.5819,-190.4132"/>
</g>
<!-- stage -->
<g id="node4" class="node">
<title>stage</title>
<ellipse fill="none" stroke="#000000" cx="93.0818" cy="-90" rx="30.7558" ry="18"/>
<text text-anchor="middle" x="93.0818" y="-85.8" font-family="sans-serif" font-size="14.00" fill="#000000">stage</text>
</g>
<!-- test&#45;&gt;stage -->
<g id="edge2" class="edge">
<title>test&#45;&gt;stage</title>
<path fill="none" stroke="#000000" d="M93.0818,-143.8314C93.0818,-136.131 93.0818,-126.9743 93.0818,-118.4166"/>
<polygon fill="#000000" stroke="#000000" points="96.5819,-118.4132 93.0818,-108.4133 89.5819,-118.4133 96.5819,-118.4132"/>
</g>
<!-- create -->
<g id="node6" class="node">
<title>create</title>
<ellipse fill="none" stroke="#000000" cx="34.0818" cy="-18" rx="34.1639" ry="18"/>
<text text-anchor="middle" x="34.0818" y="-13.8" font-family="sans-serif" font-size="14.00" fill="#000000">create</text>
</g>
<!-- test&#45;&gt;create -->
<g id="edge4" class="edge">
<title>test&#45;&gt;create</title>
<path fill="none" stroke="#000000" d="M78.8577,-146.6108C70.1554,-136.3839 59.4966,-122.257 53.0818,-108 44.2631,-88.4 39.4654,-64.5336 36.8983,-46.3038"/>
<polygon fill="#000000" stroke="#000000" points="40.3597,-45.7777 35.631,-36.2966 33.4152,-46.6572 40.3597,-45.7777"/>
</g>
<!-- stage&#45;&gt;update -->
<g id="edge3" class="edge">
<title>stage&#45;&gt;update</title>
<path fill="none" stroke="#000000" stroke-dasharray="5,2" d="M103.5092,-72.937C108.7475,-64.3654 115.2093,-53.7914 121.0606,-44.2165"/>
<polygon fill="#000000" stroke="#000000" points="124.1956,-45.7986 126.4237,-35.4407 118.2226,-42.1484 124.1956,-45.7986"/>
</g>
</g>
</svg>
