<?xml version="1.0" encoding="UTF-8" standalone="no"?>
<!DOCTYPE svg PUBLIC "-//W3C//DTD SVG 1.1//EN"
 "http://www.w3.org/Graphics/SVG/1.1/DTD/svg11.dtd">
<!-- Generated by graphviz version 2.40.1 (20161225.0304)
 -->
<!-- Title: G Pages: 1 -->
<svg width="457pt" height="117pt"
 viewBox="0.00 0.00 457.09 117.00" xmlns="http://www.w3.org/2000/svg" xmlns:xlink="http://www.w3.org/1999/xlink">
<g id="graph0" class="graph" transform="scale(1 1) rotate(0) translate(4 113)">
<title>G</title>
<!-- init -->
<g id="node1" class="node">
<title>init</title>
<ellipse fill="none" stroke="#000000" cx="27" cy="-22" rx="27" ry="18"/>
<text text-anchor="middle" x="27" y="-17.8" font-family="sans-serif" font-size="14.00" fill="#000000">init</text>
</g>
<!-- build -->
<g id="node2" class="node">
<title>build</title>
<ellipse fill="none" stroke="#000000" cx="120.8893" cy="-45" rx="30.7789" ry="18"/>
<text text-anchor="middle" x="120.8893" y="-40.8" font-family="sans-serif" font-size="14.00" fill="#000000">build</text>
</g>
<!-- init&#45;&gt;build -->
<g id="edge1" class="edge">
<title>init&#45;&gt;build</title>
<path fill="none" stroke="#000000" d="M52.6557,-28.2849C61.8586,-30.5393 72.4464,-33.133 82.4935,-35.5942"/>
<polygon fill="#000000" stroke="#000000" points="81.7435,-39.0139 92.2891,-37.9938 83.4091,-32.2149 81.7435,-39.0139"/>
</g>
<!-- update -->
<g id="node5" class="node">
<title>update</title>
<ellipse fill="none" stroke="#000000" cx="412.3129" cy="-18" rx="36.5594" ry="18"/>
<text text-anchor="middle" x="412.3129" y="-13.8" font-family="sans-serif" font-size="14.00" fill="#000000">update</text>
</g>
<!-- init&#45;&gt;update -->
<g id="edge6" class="edge">
<title>init&#45;&gt;update</title>
<path fill="none" stroke="#000000" d="M53.9606,-19.9113C65.1085,-19.1457 78.1697,-18.3752 90,-18 187.8102,-14.898 302.4003,-16.0342 365.1989,-17.0657"/>
<polygon fill="#000000" stroke="#000000" points="365.5062,-20.5713 375.5646,-17.2428 365.6259,-13.5724 365.5062,-20.5713"/>
</g>
<!-- test -->
<g id="node3" class="node">
<title>test</title>
<ellipse fill="none" stroke="#000000" cx="214.7785" cy="-45" rx="27" ry="18"/>
<text text-anchor="middle" x="214.7785" y="-40.8" font-family="sans-serif" font-size="14.00" fill="#000000">test</text>
</g>
<!-- build&#45;&gt;test -->
<g id="edge5" class="edge">
<title>build&#45;&gt;test</title>
<path fill="none" stroke="#000000" d="M151.8923,-45C160.0947,-45 169.0338,-45 177.5299,-45"/>
<polygon fill="#000000" stroke="#000000" points="177.5943,-48.5001 187.5943,-45 177.5942,-41.5001 177.5943,-48.5001"/>
</g>
<!-- stage -->
<g id="node4" class="node">
<title>stage</title>
<ellipse fill="none" stroke="#000000" cx="308.6562" cy="-45" rx="30.7558" ry="18"/>
<text text-anchor="middle" x="308.6562" y="-40.8" font-family="sans-serif" font-size="14.00" fill="#000000">stage</text>
</g>
<!-- test&#45;&gt;stage -->
<g id="edge2" class="edge">
<title>test&#45;&gt;stage</title>
<path fill="none" stroke="#000000" d="M241.9318,-45C249.9496,-45 258.9102,-45 267.5978,-45"/>
<polygon fill="#000000" stroke="#000000" points="267.598,-48.5001 277.5979,-45 267.5979,-41.5001 267.598,-48.5001"/>
</g>
<!-- create -->
<g id="node6" class="node">
<title>create</title>
<ellipse fill="none" stroke="#000000" cx="412.3129" cy="-91" rx="34.1639" ry="18"/>
<text text-anchor="middle" x="412.3129" y="-86.8" font-family="sans-serif" font-size="14.00" fill="#000000">create</text>
</g>
<!-- test&#45;&gt;create -->
<g id="edge4" class="edge">
<title>test&#45;&gt;create</title>
<path fill="none" stroke="#000000" d="M236.42,-55.964C248.3427,-61.5685 263.5678,-68.0273 277.7785,-72 307.36,-80.2696 341.6557,-85.0424 368.2164,-87.736"/>
<polygon fill="#000000" stroke="#000000" points="368.0687,-91.2377 378.3556,-88.7021 368.7328,-84.2693 368.0687,-91.2377"/>
</g>
<!-- stage&#45;&gt;update -->
<g id="edge3" class="edge">
<title>stage&#45;&gt;update</title>
<path fill="none" stroke="#000000" stroke-dasharray="5,2" d="M336.9808,-37.6221C347.0775,-34.9922 358.6839,-31.969 369.7141,-29.0959"/>
<polygon fill="#000000" stroke="#000000" points="370.8271,-32.4229 379.622,-26.5152 369.0626,-25.6489 370.8271,-32.4229"/>
</g>
</g>
</svg>
